<svg width="25" height="25" viewBox="0 0 25 25" fill="none" xmlns="http://www.w3.org/2000/svg">
<path d="M6.34846 11.6967C6.28371 11.2794 6.25012 10.8519 6.25012 10.4167C6.25012 5.8143 10.0056 2.08334 14.6383 2.08334C19.2709 2.08334 23.0264 5.8143 23.0264 10.4167C23.0264 11.4563 22.8348 12.4515 22.4847 13.3693C22.412 13.5599 22.3756 13.6552 22.3591 13.7296C22.3428 13.8033 22.3365 13.8552 22.3347 13.9307C22.3329 14.0069 22.3432 14.0908 22.3639 14.2587L22.7832 17.6651C22.8286 18.0339 22.8513 18.2183 22.79 18.3523C22.7362 18.4698 22.6408 18.5631 22.5221 18.6141C22.3867 18.6723 22.2029 18.6454 21.8353 18.5915L18.5173 18.1051C18.3441 18.0797 18.2574 18.067 18.1785 18.0675C18.1005 18.0679 18.0465 18.0737 17.9701 18.0897C17.8929 18.106 17.7943 18.1429 17.597 18.2168C16.6769 18.5614 15.6798 18.75 14.6383 18.75C14.2027 18.75 13.7748 18.717 13.3571 18.6534M7.94972 22.9167C11.0382 22.9167 13.5418 20.3516 13.5418 17.1875C13.5418 14.0234 11.0382 11.4583 7.94972 11.4583C4.86129 11.4583 2.35762 14.0234 2.35762 17.1875C2.35762 17.8235 2.45878 18.4354 2.64553 19.007C2.72447 19.2487 2.76393 19.3695 2.77689 19.452C2.79041 19.5382 2.79278 19.5866 2.78775 19.6737C2.78292 19.7571 2.76205 19.8514 2.72031 20.0399L2.0835 22.9167L5.20308 22.4906C5.37336 22.4674 5.45849 22.4558 5.53284 22.4563C5.61112 22.4568 5.65267 22.461 5.72944 22.4763C5.80235 22.4909 5.91075 22.5291 6.12753 22.6056C6.6987 22.8072 7.31173 22.9167 7.94972 22.9167Z" stroke="#EC4036" stroke-width="2" stroke-linecap="round" stroke-linejoin="round"/>
</svg>
