<svg width="25" height="25" viewBox="0 0 25 25" fill="none" xmlns="http://www.w3.org/2000/svg">
<g id="Frame" clip-path="url(#clip0_0_555)">
<g id="Group">
<path id="Vector" d="M12.5 0C5.60752 0 0 5.60744 0 12.4999C0 19.3924 5.60752 25 12.5 25C19.3925 25 25 19.3924 25 12.4999C25 5.60744 19.3926 0 12.5 0ZM12.5 23.5562C6.40359 23.5562 1.44375 18.5964 1.44375 12.4999C1.44375 6.40355 6.40359 1.44375 12.5 1.44375C18.5964 1.44375 23.5562 6.40355 23.5562 12.4999C23.5562 18.5964 18.5964 23.5562 12.5 23.5562Z" fill="#EC4036"/>
<path id="Vector_2" d="M19.382 5.91244C19.1931 5.56117 18.7555 5.42968 18.4043 5.61844L10.2794 9.98723C10.1547 10.0543 10.0525 10.1565 9.98543 10.2813L5.6184 18.4043C5.4639 18.6917 5.52408 19.0371 5.74352 19.2565C5.79338 19.3064 5.85032 19.3487 5.91252 19.3819C6.12955 19.4986 6.37967 19.4926 6.58359 19.3883L6.58372 19.3884L6.58678 19.3868C6.58972 19.3853 6.59262 19.3836 6.59552 19.3821L14.7244 15.0165C14.8492 14.9495 14.9515 14.8472 15.0185 14.7225L19.3681 6.6195C19.3776 6.60312 19.3867 6.58658 19.3948 6.56959L19.4007 6.55868L19.4 6.55843C19.4924 6.35921 19.4939 6.12073 19.382 5.91244ZM8.02301 16.9807L10.7981 11.8189L13.1844 14.2053L8.02301 16.9807ZM14.2059 13.1849L11.8194 10.7984L16.9808 8.0231" fill="#EC4036"/>
</g>
</g>
<defs>
<clipPath id="clip0_0_555">
<rect width="25" height="25" fill="white"/>
</clipPath>
</defs>
</svg>
