<svg width="22" height="22" viewBox="0 0 22 22" fill="none" xmlns="http://www.w3.org/2000/svg">
<g clip-path="url(#clip0_86_1425)">
<path d="M20.0664 5.15625H17.4436C17.8491 4.61725 18.0898 3.94758 18.0898 3.22266C18.0898 1.44568 16.6442 0 14.8672 0C13.7968 0 13.0075 0.383496 12.3832 1.20686C11.8609 1.89574 11.479 2.85755 11 4.07279C10.521 2.85751 10.1391 1.89574 9.61679 1.20686C8.9925 0.383496 8.20321 0 7.13281 0C5.35584 0 3.91016 1.44568 3.91016 3.22266C3.91016 3.94758 4.15091 4.61725 4.55645 5.15625H1.93359C0.86741 5.15625 0 6.02366 0 7.08984V8.37891C0 9.21916 0.538871 9.93558 1.28906 10.2016V20.0664C1.28906 21.1326 2.15647 22 3.22266 22H18.7773C19.8435 22 20.7109 21.1326 20.7109 20.0664V10.2016C21.4611 9.93558 22 9.21916 22 8.37891V7.08984C22 6.02366 21.1326 5.15625 20.0664 5.15625ZM12.1831 4.58648C13.1705 2.08149 13.5459 1.28906 14.8672 1.28906C15.9334 1.28906 16.8008 2.15647 16.8008 3.22266C16.8008 4.28884 15.9334 5.15625 14.8672 5.15625H11.9576C12.0366 4.95795 12.1119 4.76704 12.1831 4.58648ZM7.13281 1.28906C8.45414 1.28906 8.82952 2.08149 9.8169 4.58648C9.88805 4.76704 9.96338 4.95795 10.0424 5.15625H7.13281C6.06663 5.15625 5.19922 4.28884 5.19922 3.22266C5.19922 2.15647 6.06663 1.28906 7.13281 1.28906ZM8.42188 20.7109H3.22266C2.86726 20.7109 2.57812 20.4218 2.57812 20.0664V10.3125H8.42188V20.7109ZM8.42188 9.02344H1.93359C1.5782 9.02344 1.28906 8.7343 1.28906 8.37891V7.08984C1.28906 6.73445 1.5782 6.44531 1.93359 6.44531H8.42188V9.02344ZM12.2891 20.7109H9.71094V6.44531H12.2891V20.7109ZM19.4219 20.0664C19.4219 20.4218 19.1327 20.7109 18.7773 20.7109H13.5781V10.3125H19.4219V20.0664ZM20.7109 8.37891C20.7109 8.7343 20.4218 9.02344 20.0664 9.02344H13.5781V6.44531H20.0664C20.4218 6.44531 20.7109 6.73445 20.7109 7.08984V8.37891Z" fill="#EC4036"/>
</g>
<defs>
<clipPath id="clip0_86_1425">
<rect width="22" height="22" fill="white"/>
</clipPath>
</defs>
</svg>
