<svg width="31" height="31" viewBox="0 0 31 31" fill="none" xmlns="http://www.w3.org/2000/svg">
<g clip-path="url(#clip0_86_1329)">
<path d="M13.5454 7.55383C10.6375 8.23183 8.29674 10.5379 7.58192 13.4288C6.86487 16.3289 7.68552 19.285 9.77729 21.3362C10.5172 22.0619 10.959 23.2249 10.959 24.4474V24.6426C10.959 25.4476 11.3102 26.172 11.8672 26.6712V28.2754C11.8672 29.7777 13.0894 31 14.5918 31H16.4082C17.9106 31 19.1328 29.7777 19.1328 28.2754V26.6712C19.6898 26.172 20.041 25.4477 20.041 24.6426V24.4439C20.041 23.2399 20.5064 22.0548 21.286 21.2736C22.8258 19.7304 23.6738 17.68 23.6738 15.5C23.6738 10.2882 18.8441 6.31879 13.5454 7.55383ZM17.3164 28.2754C17.3164 28.7762 16.909 29.1836 16.4082 29.1836H14.5918C14.091 29.1836 13.6836 28.7762 13.6836 28.2754V27.3672H17.3164V28.2754ZM20.0002 19.9905C18.8718 21.1214 18.2246 22.7445 18.2246 24.4439V24.6426C18.2246 25.1434 17.8172 25.5508 17.3164 25.5508H13.6836C13.1828 25.5508 12.7754 25.1434 12.7754 24.6426V24.4474C12.7754 22.7219 12.1461 21.1152 11.049 20.0394C9.42091 18.4428 8.78402 16.1345 9.34517 13.8647C9.89766 11.6301 11.7083 9.84728 13.9579 9.32283C18.1157 8.35329 21.8574 11.4572 21.8574 15.5C21.8574 17.1956 21.1978 18.7903 20.0002 19.9905ZM8.43581 7.15143L5.86699 4.58267C5.51237 4.22799 4.93729 4.22799 4.58261 4.58267C4.22793 4.93736 4.22793 5.51237 4.58261 5.86705L7.15143 8.43581C7.50606 8.7905 8.08119 8.7905 8.43581 8.43581C8.7905 8.08113 8.7905 7.50612 8.43581 7.15143ZM4.60156 14.5918H0.908203C0.406633 14.5918 0 14.9984 0 15.5C0 16.0016 0.406633 16.4082 0.908203 16.4082H4.60156C5.10313 16.4082 5.50977 16.0016 5.50977 15.5C5.50977 14.9984 5.10313 14.5918 4.60156 14.5918ZM30.0918 14.5918H26.3984C25.8969 14.5918 25.4902 14.9984 25.4902 15.5C25.4902 16.0016 25.8969 16.4082 26.3984 16.4082H30.0918C30.5934 16.4082 31 16.0016 31 15.5C31 14.9984 30.5934 14.5918 30.0918 14.5918ZM26.4174 4.58267C26.0628 4.22799 25.4878 4.22799 25.133 4.58267L22.5642 7.15143C22.2095 7.50606 22.2095 8.08113 22.5642 8.43581C22.9188 8.7905 23.4939 8.7905 23.8486 8.43581L26.4174 5.86705C26.7721 5.51243 26.7721 4.93736 26.4174 4.58267ZM15.5 0C14.9984 0 14.5918 0.406633 14.5918 0.908203V4.60156C14.5918 5.10313 14.9984 5.50977 15.5 5.50977C16.0016 5.50977 16.4082 5.10313 16.4082 4.60156V0.908203C16.4082 0.406633 16.0016 0 15.5 0Z" fill="#EC4036"/>
<path d="M15.4999 10.959C15.1265 10.959 14.7462 11.0037 14.3702 11.0918C12.8041 11.4573 11.4931 12.7464 11.108 14.2995C10.9872 14.7864 11.284 15.2789 11.7708 15.3997C12.2577 15.5204 12.7502 15.2235 12.8709 14.7368C13.0926 13.8433 13.8788 13.0718 14.7838 12.8605C15.0249 12.804 15.2658 12.7754 15.4999 12.7754C16.0014 12.7754 16.4081 12.3688 16.4081 11.8672C16.4081 11.3656 16.0014 10.959 15.4999 10.959Z" fill="#EC4036"/>
</g>
<defs>
<clipPath id="clip0_86_1329">
<rect width="31" height="31" fill="white"/>
</clipPath>
</defs>
</svg>
