<svg width="29" height="29" viewBox="0 0 29 29" fill="none" xmlns="http://www.w3.org/2000/svg">
<g clip-path="url(#clip0_86_1428)">
<path d="M29 10.8309L14.4864 3.26697L0 10.8335L6.85722 14.4336V20.1604H22.1728V14.4324L25.5638 12.6436V19.1277L23.8564 22.8528L26.4115 25.733L28.9665 22.8528L27.2592 19.1277V11.7492L29 10.8309ZM26.4115 23.1781L25.8582 22.5544L26.4115 21.3473L26.9648 22.5544L26.4115 23.1781ZM20.4774 18.465H8.55268V12.9621C10.4199 12.1131 12.4135 11.6832 14.4868 11.6832C16.5631 11.6832 18.623 12.1243 20.4774 12.9628V18.465ZM22.1728 12.5155V11.9023C21.8995 11.8011 18.9315 9.9877 14.4868 9.9877C10.0446 9.9877 7.19433 11.7761 6.85722 11.9023V12.5186L3.65473 10.8373L14.4872 5.17933L25.3489 10.84L22.1728 12.5155Z" fill="#EC4036"/>
</g>
<defs>
<clipPath id="clip0_86_1428">
<rect width="29" height="29" fill="white"/>
</clipPath>
</defs>
</svg>
