<svg width="278" height="66" viewBox="0 0 278 66" fill="none" xmlns="http://www.w3.org/2000/svg">
<g clip-path="url(#clip0_421_1657)">
<path d="M237.09 59.31C235.67 60.52 234.11 61.47 232.42 62.16C230.74 62.85 228.9 63.2 226.88 63.2C224.7 63.2 222.64 62.79 220.69 61.97C218.74 61.15 217.03 60.02 215.56 58.59C214.09 57.16 212.92 55.48 212.05 53.56C211.2 51.63 210.77 49.55 210.77 47.32C210.77 45.89 210.95 44.5 211.3 43.16C211.65 41.82 212.16 40.57 212.8 39.41C213.46 38.23 214.26 37.16 215.2 36.19C216.13 35.21 217.18 34.37 218.32 33.68C219.48 32.99 220.73 32.46 222.07 32.08C223.43 31.69 224.85 31.5 226.35 31.5C227.58 31.5 228.78 31.65 229.98 31.96C231.17 32.25 232.3 32.67 233.37 33.22C234.45 33.77 235.46 34.44 236.39 35.23C237.33 36 238.15 36.88 238.86 37.87C239.83 39.22 240.54 40.68 240.99 42.25C241.44 43.81 241.67 45.55 241.67 47.45C241.67 47.92 241.65 48.31 241.6 48.63C241.57 48.94 241.47 49.19 241.31 49.38C241.15 49.57 240.91 49.72 240.58 49.82C240.26 49.9 239.81 49.94 239.23 49.94H217.77C217.98 51.1 218.37 52.13 218.96 53.03C219.56 53.92 220.26 54.67 221.06 55.3C221.87 55.91 222.75 56.38 223.7 56.7C224.65 57.01 225.6 57.16 226.55 57.16C227.28 57.16 227.97 57.09 228.63 56.94C229.31 56.8 229.94 56.6 230.52 56.36C231.1 56.12 231.63 55.84 232.12 55.54C232.62 55.22 233.05 54.89 233.43 54.55C233.43 54.53 233.43 54.53 233.45 54.53C233.64 54.35 233.83 54.22 234.01 54.12C234.19 54.01 234.37 53.95 234.57 53.95C234.71 53.95 234.88 54 235.05 54.09C235.24 54.19 235.43 54.35 235.61 54.57C236.05 55.1 236.42 55.55 236.72 55.9C237.03 56.25 237.28 56.55 237.47 56.79C237.66 57.03 237.8 57.24 237.88 57.42C237.98 57.6 238.03 57.77 238.03 57.95C238.03 58.4 237.72 58.85 237.11 59.3M200.89 33.47C200.89 33.05 201.01 32.7 201.26 32.43C201.51 32.14 201.87 31.99 202.34 31.99H206.42C206.6 31.99 206.78 32.03 206.96 32.11C207.16 32.17 207.33 32.28 207.48 32.43C207.63 32.56 207.75 32.71 207.85 32.89C207.95 33.07 208 33.26 208 33.47V61.33C208 62.3 207.48 62.78 206.45 62.78H202.37C201.39 62.78 200.9 62.3 200.9 61.33V33.47H200.89ZM200.89 22.75C200.89 21.78 201.37 21.3 202.34 21.3H206.47C206.93 21.3 207.3 21.42 207.58 21.66C207.86 21.9 208 22.27 208 22.75V26.36C208 26.73 207.87 27.09 207.61 27.43C207.35 27.75 206.98 27.92 206.5 27.92H202.37C201.39 27.92 200.9 27.4 200.9 26.37V22.76L200.89 22.75ZM186.25 32.12C186.25 30.68 186.47 29.3 186.9 27.98C187.33 26.64 187.97 25.46 188.81 24.44C189.65 23.42 190.67 22.62 191.87 22.02C193.09 21.41 194.47 21.1 196.02 21.1H196.26C196.73 21.1 197.09 21.25 197.35 21.54C197.61 21.81 197.74 22.19 197.74 22.68V26.02C197.74 26.49 197.61 26.88 197.35 27.21C197.11 27.53 196.77 27.69 196.34 27.69C196.1 27.69 195.79 27.76 195.42 27.88C195.05 27.99 194.7 28.18 194.36 28.44C194.02 28.7 193.73 29.03 193.49 29.43C193.25 29.83 193.13 30.31 193.13 30.86V34.78H196.63C197.1 34.78 197.46 34.9 197.72 35.14C197.98 35.38 198.11 35.79 198.11 36.35V39.33C198.11 39.9 197.98 40.32 197.72 40.61C197.46 40.88 197.1 41.02 196.63 41.02H193.13V61.2C193.13 61.72 192.96 62.11 192.62 62.39C192.28 62.65 191.91 62.78 191.51 62.78H187.77C187.29 62.78 186.91 62.63 186.64 62.34C186.38 62.03 186.25 61.65 186.25 61.2V41.02H183.86C183.39 41.02 183.02 40.88 182.73 40.61C182.44 40.32 182.3 39.89 182.3 39.33V36.35C182.3 35.78 182.44 35.38 182.73 35.14C183.02 34.9 183.4 34.78 183.86 34.78H186.25V32.12ZM154.52 61.28C154.37 61.76 154.21 62.13 154.04 62.37C153.88 62.61 153.56 62.73 153.07 62.73H149.42C148.4 62.73 147.9 62.25 147.9 61.28V24.27C147.9 23.85 148.05 23.5 148.34 23.23C148.63 22.96 148.96 22.82 149.33 22.82H153.32C153.8 22.82 154.18 22.97 154.46 23.26C154.73 23.53 154.87 23.87 154.87 24.28V35.41C156.03 34.21 157.36 33.26 158.86 32.55C160.37 31.84 162.11 31.48 164.06 31.48C166.24 31.48 168.26 31.9 170.13 32.74C172.02 33.56 173.65 34.7 175.04 36.13C176.44 37.57 177.54 39.26 178.33 41.2C179.12 43.12 179.51 45.19 179.51 47.41C179.51 49.63 179.12 51.68 178.33 53.62C177.54 55.54 176.44 57.22 175.04 58.66C173.65 60.1 172.02 61.24 170.13 62.08C168.26 62.9 166.24 63.32 164.06 63.32C163.11 63.32 162.2 63.21 161.33 63C160.46 62.79 159.63 62.51 158.84 62.15C158.05 61.78 157.31 61.34 156.62 60.84C155.94 60.34 155.32 59.81 154.76 59.24L154.54 61.3L154.52 61.28ZM172.7 47.39C172.7 46.11 172.47 44.89 172.02 43.73C171.57 42.57 170.94 41.55 170.13 40.67C169.32 39.78 168.37 39.08 167.28 38.56C166.18 38.03 165 37.76 163.73 37.76C162.46 37.76 161.22 38.03 160.08 38.56C158.95 39.08 157.96 39.78 157.11 40.67C156.27 41.54 155.61 42.56 155.13 43.73C154.65 44.89 154.4 46.11 154.4 47.39V47.56C154.42 48.84 154.67 50.04 155.17 51.17C155.67 52.29 156.34 53.27 157.18 54.13C158.02 54.97 158.99 55.64 160.11 56.14C161.24 56.62 162.45 56.87 163.74 56.87C165.03 56.87 166.2 56.62 167.29 56.12C168.39 55.62 169.34 54.94 170.14 54.08C170.95 53.22 171.57 52.22 172.03 51.07C172.48 49.91 172.71 48.68 172.71 47.38L172.7 47.39ZM140.53 59.3C139.11 60.51 137.55 61.46 135.86 62.15C134.18 62.84 132.34 63.19 130.32 63.19C128.14 63.19 126.08 62.78 124.13 61.96C122.18 61.14 120.47 60.01 119 58.58C117.53 57.15 116.36 55.47 115.49 53.55C114.64 51.62 114.21 49.54 114.21 47.31C114.21 45.88 114.39 44.49 114.74 43.15C115.09 41.81 115.59 40.56 116.24 39.4C116.9 38.22 117.7 37.15 118.63 36.18C119.57 35.2 120.61 34.36 121.75 33.67C122.91 32.98 124.16 32.45 125.5 32.07C126.85 31.68 128.28 31.49 129.78 31.49C131.01 31.49 132.22 31.64 133.41 31.95C134.6 32.24 135.73 32.66 136.8 33.21C137.88 33.76 138.89 34.43 139.82 35.22C140.76 35.99 141.58 36.87 142.29 37.86C143.26 39.21 143.97 40.67 144.42 42.24C144.87 43.8 145.1 45.54 145.1 47.44C145.1 47.91 145.08 48.3 145.03 48.62C145 48.93 144.9 49.18 144.74 49.37C144.58 49.56 144.34 49.71 144.01 49.81C143.69 49.89 143.24 49.93 142.65 49.93H121.19C121.4 51.09 121.79 52.12 122.38 53.02C122.98 53.91 123.68 54.66 124.48 55.29C125.29 55.9 126.17 56.37 127.12 56.69C128.07 57 129.02 57.15 129.97 57.15C130.7 57.15 131.39 57.08 132.05 56.93C132.73 56.79 133.36 56.59 133.94 56.35C134.52 56.11 135.05 55.83 135.54 55.53C136.04 55.21 136.48 54.88 136.85 54.54C136.85 54.52 136.85 54.52 136.87 54.52C137.06 54.34 137.25 54.21 137.43 54.11C137.61 54 137.79 53.94 137.99 53.94C138.14 53.94 138.3 53.99 138.47 54.08C138.66 54.18 138.85 54.34 139.03 54.56C139.46 55.09 139.84 55.54 140.14 55.89C140.45 56.24 140.7 56.54 140.89 56.78C141.08 57.02 141.22 57.23 141.3 57.41C141.4 57.59 141.44 57.76 141.44 57.94C141.44 58.39 141.13 58.84 140.52 59.29L140.53 59.3ZM129.79 37.49C128.84 37.49 127.91 37.67 127.01 38.02C126.11 38.36 125.28 38.83 124.52 39.42C123.78 40.02 123.13 40.72 122.56 41.52C122.01 42.33 121.61 43.2 121.35 44.13H138.48C138.22 43.15 137.83 42.25 137.29 41.45C136.77 40.63 136.14 39.93 135.4 39.35C134.66 38.75 133.81 38.29 132.86 37.97C131.91 37.65 130.88 37.49 129.79 37.49ZM104.41 24.25C104.41 23.83 104.52 23.48 104.75 23.21C104.98 22.93 105.33 22.8 105.8 22.8H110.07C110.4 22.8 110.7 22.94 110.97 23.21C111.26 23.48 111.41 23.83 111.41 24.25V61.33C111.41 61.82 111.27 62.18 111 62.42C110.74 62.66 110.38 62.78 109.93 62.78H105.86C105.34 62.78 104.97 62.66 104.74 62.42C104.53 62.18 104.42 61.81 104.42 61.33V24.27L104.41 24.25ZM97.0402 59.29C95.6202 60.5 94.0602 61.45 92.3702 62.14C90.6902 62.83 88.8502 63.18 86.8302 63.18C84.6502 63.18 82.5902 62.77 80.6402 61.95C78.6902 61.13 76.9802 60 75.5102 58.57C74.0402 57.14 72.8702 55.46 72.0002 53.54C71.1402 51.61 70.7202 49.53 70.7202 47.3C70.7202 45.87 70.9002 44.48 71.2502 43.14C71.6102 41.8 72.1102 40.55 72.7502 39.39C73.4102 38.21 74.2102 37.14 75.1502 36.17C76.0902 35.19 77.1302 34.35 78.2702 33.66C79.4302 32.97 80.6802 32.44 82.0202 32.06C83.3702 31.67 84.8002 31.48 86.3002 31.48C87.5302 31.48 88.7302 31.63 89.9302 31.94C91.1202 32.23 92.2502 32.65 93.3202 33.2C94.4002 33.75 95.4102 34.42 96.3402 35.21C97.2802 35.98 98.1002 36.86 98.8102 37.85C99.7802 39.2 100.49 40.66 100.94 42.23C101.39 43.79 101.62 45.53 101.62 47.43C101.62 47.9 101.6 48.29 101.55 48.61C101.52 48.92 101.42 49.17 101.26 49.36C101.1 49.55 100.86 49.7 100.53 49.8C100.21 49.88 99.7602 49.92 99.1802 49.92H77.7202C77.9302 51.08 78.3202 52.11 78.9102 53.01C79.5102 53.9 80.2102 54.65 81.0202 55.28C81.8302 55.89 82.7102 56.36 83.6602 56.68C84.6102 56.99 85.5602 57.14 86.5102 57.14C87.2402 57.14 87.9302 57.07 88.5902 56.92C89.2702 56.78 89.9002 56.58 90.4802 56.34C91.0602 56.1 91.5902 55.82 92.0802 55.52C92.5802 55.2 93.0202 54.87 93.3902 54.53C93.3902 54.51 93.3902 54.51 93.4102 54.51C93.6002 54.33 93.7902 54.2 93.9702 54.1C94.1502 53.99 94.3302 53.93 94.5302 53.93C94.6802 53.93 94.8402 53.98 95.0102 54.07C95.2002 54.17 95.3902 54.33 95.5702 54.55C96.0102 55.08 96.3802 55.53 96.6802 55.88C96.9902 56.23 97.2402 56.53 97.4302 56.77C97.6202 57.01 97.7602 57.22 97.8402 57.4C97.9402 57.58 97.9802 57.75 97.9802 57.93C97.9802 58.38 97.6702 58.83 97.0602 59.28L97.0402 59.29ZM86.3002 37.48C85.3502 37.48 84.4202 37.66 83.5202 38.01C82.6202 38.35 81.7902 38.82 81.0302 39.41C80.2902 40.01 79.6302 40.71 79.0702 41.51C78.5202 42.32 78.1202 43.19 77.8602 44.12H94.9902C94.7302 43.14 94.3402 42.24 93.8002 41.44C93.2802 40.62 92.6502 39.92 91.9102 39.34C91.1702 38.74 90.3202 38.28 89.3702 37.96C88.4202 37.64 87.3902 37.48 86.3002 37.48ZM226.38 37.48C225.43 37.48 224.5 37.66 223.6 38.01C222.7 38.35 221.87 38.82 221.11 39.41C220.37 40.01 219.71 40.71 219.15 41.51C218.6 42.32 218.2 43.19 217.94 44.12H235.07C234.81 43.14 234.42 42.24 233.88 41.44C233.36 40.62 232.74 39.92 231.99 39.34C231.25 38.74 230.4 38.28 229.45 37.96C228.5 37.64 227.47 37.48 226.38 37.48Z" fill="white"/>
<path fill-rule="evenodd" clip-rule="evenodd" d="M12.36 7.51C14.25 7.51 15.79 9.04 15.79 10.94C15.79 12.84 14.26 14.37 12.36 14.37C10.46 14.37 8.93 12.84 8.93 10.94C8.93 9.04 10.46 7.51 12.36 7.51ZM17.55 0H48.22C57.87 0 65.77 7.9 65.77 17.55V25.19H52.54C49.47 17.34 41.82 11.78 32.88 11.78C21.22 11.78 11.77 21.23 11.77 32.89C11.77 44.55 21.22 54 32.88 54C41.82 54 49.47 48.44 52.54 40.59H65.77V48.23C65.77 57.88 57.87 65.78 48.22 65.78H17.55C7.9 65.78 0 57.88 0 48.23V17.56C0 7.9 7.9 0 17.55 0Z" fill="white"/>
<path fill-rule="evenodd" clip-rule="evenodd" d="M19.1599 20.86L27.3899 35.03H14.7599C14.6799 34.32 14.6299 33.61 14.6299 32.88C14.6299 28.28 16.3399 24.07 19.1499 20.86" fill="white"/>
<path fill-rule="evenodd" clip-rule="evenodd" d="M36.2501 14.95L27.7501 29.69L21.3901 18.73C24.5301 16.18 28.5301 14.65 32.8901 14.65C34.0401 14.65 35.1601 14.76 36.2501 14.96" fill="white"/>
<path fill-rule="evenodd" clip-rule="evenodd" d="M50.0601 26.7L32.8901 26.74L39.2001 15.76C44.2401 17.62 48.2301 21.64 50.0601 26.7Z" fill="white"/>
<path fill-rule="evenodd" clip-rule="evenodd" d="M46.4302 45.1199L37.9902 29.7L50.8602 29.7199C51.0402 30.7499 51.1302 31.8099 51.1302 32.8899C51.1302 37.5899 49.3502 41.8799 46.4302 45.1199Z" fill="white"/>
<path fill-rule="evenodd" clip-rule="evenodd" d="M28.9702 50.71L37.7902 35.62L44.0702 47.29C40.9802 49.69 37.1002 51.12 32.8802 51.12C31.5402 51.12 30.2302 50.97 28.9702 50.7" fill="white"/>
<path fill-rule="evenodd" clip-rule="evenodd" d="M15.3699 38.02L32.8499 38.16L26.0399 49.81C20.9099 47.73 16.9399 43.39 15.3599 38.03" fill="white"/>
<path d="M72.4099 5.18999H73.5699C74.1199 5.18999 74.4999 5.10999 74.6999 4.93999C74.8999 4.77999 74.9999 4.55999 74.9999 4.28999C74.9999 4.11999 74.9499 3.95999 74.8499 3.81999C74.7499 3.67999 74.6199 3.57999 74.4499 3.50999C74.2799 3.43999 73.9599 3.40999 73.4899 3.40999H72.4099V5.17999V5.18999ZM71.4599 8.50999V2.61999H73.4899C74.1799 2.61999 74.6899 2.66999 74.9999 2.77999C75.3099 2.88999 75.5599 3.07999 75.7399 3.34999C75.9199 3.61999 76.0199 3.90999 76.0199 4.20999C76.0199 4.63999 75.8699 5.01999 75.5599 5.32999C75.2499 5.64999 74.8399 5.82999 74.3299 5.86999C74.5399 5.95999 74.7099 6.05999 74.8299 6.17999C75.0699 6.40999 75.3599 6.79999 75.6999 7.34999L76.4199 8.49999H75.2599L74.7299 7.56999C74.3199 6.83999 73.9799 6.37999 73.7299 6.19999C73.5599 6.06999 73.2999 5.99999 72.9699 5.99999H72.4099V8.49999H71.4599V8.50999ZM73.8699 0.89999C73.0999 0.89999 72.3499 1.09999 71.6199 1.48999C70.8899 1.87999 70.3199 2.44999 69.9099 3.17999C69.4999 3.90999 69.2899 4.67999 69.2899 5.46999C69.2899 6.25999 69.4899 7.01999 69.8999 7.73999C70.2999 8.45999 70.8699 9.02999 71.5999 9.42999C72.3299 9.82999 73.0899 10.04 73.8799 10.04C74.6699 10.04 75.4299 9.83999 76.1499 9.42999C76.8799 9.02999 77.4399 8.45999 77.8399 7.73999C78.2399 7.01999 78.4399 6.25999 78.4399 5.46999C78.4399 4.67999 78.2299 3.90999 77.8199 3.17999C77.4099 2.44999 76.8399 1.87999 76.1099 1.48999C75.3799 1.09999 74.6299 0.89999 73.8699 0.89999ZM73.8699 -0.0100098C74.7899 -0.0100098 75.6899 0.22999 76.5699 0.69999C77.4499 1.16999 78.1299 1.84999 78.6199 2.72999C79.1099 3.60999 79.3499 4.52999 79.3499 5.47999C79.3499 6.42999 79.1099 7.33999 78.6299 8.20999C78.1499 9.07999 77.4699 9.75999 76.5999 10.24C75.7299 10.72 74.8199 10.96 73.8699 10.96C72.9199 10.96 72.0099 10.72 71.1399 10.24C70.2699 9.75999 69.5899 9.07999 69.1099 8.20999C68.6299 7.33999 68.3799 6.42999 68.3799 5.47999C68.3799 4.52999 68.6299 3.60999 69.1199 2.72999C69.6099 1.84999 70.2999 1.16999 71.1699 0.69999C72.0499 0.22999 72.9499 -0.0100098 73.8699 -0.0100098Z" fill="white"/>
<path d="M270.39 60.31C268.13 60.31 266.43 58.66 266.43 56.26C266.43 53.86 268.13 52.21 270.39 52.21C272.65 52.21 274.35 53.86 274.35 56.26C274.35 58.66 272.65 60.31 270.39 60.31ZM270.39 62.81C274.37 62.81 277.32 60.04 277.32 56.26C277.32 52.48 274.37 49.71 270.39 49.71C266.41 49.71 263.46 52.5 263.46 56.26C263.46 60.02 266.39 62.81 270.39 62.81ZM260.75 62.74C261.73 62.74 262.5 62 262.5 60.97C262.5 59.94 261.72 59.23 260.75 59.23C259.78 59.23 259 59.92 259 60.97C259 62.02 259.78 62.74 260.75 62.74ZM254.29 55.09L257.15 51.83V49.93H248.29V52.28H253.68L251.08 55.23V57.17H252.42C254.08 57.17 254.79 57.77 254.79 58.73C254.79 59.76 253.89 60.36 252.42 60.36C251.1 60.36 249.76 59.94 248.8 59.22L247.66 61.46C248.89 62.33 250.72 62.82 252.49 62.82C256.09 62.82 257.74 60.87 257.74 58.73C257.74 56.87 256.58 55.46 254.3 55.09H254.29Z" fill="white"/>
</g>
<defs>
<clipPath id="clip0_421_1657">
<rect width="277.32" height="65.77" fill="white"/>
</clipPath>
</defs>
</svg>
