<svg width="22" height="22" viewBox="0 0 22 22" fill="none" xmlns="http://www.w3.org/2000/svg">
<path d="M5.90945 10.3448C5.85665 10.0044 5.82925 9.65578 5.82925 9.30078C5.82925 5.54704 8.89228 2.50403 12.6707 2.50403C16.4491 2.50403 19.5122 5.54704 19.5122 9.30078C19.5122 10.1487 19.3559 10.9604 19.0703 11.709C19.011 11.8644 18.9814 11.9421 18.9679 12.0028C18.9546 12.063 18.9494 12.1053 18.948 12.1668C18.9465 12.229 18.9549 12.2974 18.9718 12.4344L19.3138 15.2127C19.3508 15.5135 19.3694 15.6638 19.3193 15.7732C19.2755 15.869 19.1976 15.945 19.1009 15.9867C18.9904 16.0342 18.8405 16.0122 18.5407 15.9682L15.8345 15.5716C15.6932 15.5508 15.6225 15.5405 15.5582 15.5408C15.4945 15.5412 15.4505 15.5459 15.3882 15.559C15.3252 15.5722 15.2448 15.6024 15.0839 15.6626C14.3334 15.9437 13.5202 16.0975 12.6707 16.0975C12.3154 16.0975 11.9665 16.0706 11.6258 16.0187M7.21546 19.4959C9.73442 19.4959 11.7764 17.4038 11.7764 14.8231C11.7764 12.2424 9.73442 10.1504 7.21546 10.1504C4.6965 10.1504 2.65449 12.2424 2.65449 14.8231C2.65449 15.3419 2.737 15.8409 2.88931 16.3071C2.95369 16.5042 2.98588 16.6028 2.99645 16.6701C3.00748 16.7404 3.00941 16.7799 3.0053 16.8509C3.00137 16.9189 2.98435 16.9958 2.9503 17.1496L2.43091 19.4959L4.97527 19.1484C5.11415 19.1294 5.18359 19.12 5.24423 19.1204C5.30807 19.1208 5.34196 19.1243 5.40458 19.1368C5.46405 19.1486 5.55245 19.1798 5.72926 19.2422C6.19511 19.4066 6.69511 19.4959 7.21546 19.4959Z" stroke="white" stroke-width="2" stroke-linecap="round" stroke-linejoin="round"/>
</svg>
