<svg width="25" height="25" viewBox="0 0 25 25" fill="none" xmlns="http://www.w3.org/2000/svg">
<g id="message-chat-circle" opacity="0.3">
<path id="Icon" d="M6.34834 11.6966C6.28359 11.2793 6.25 10.8519 6.25 10.4166C6.25 5.81421 10.0055 2.08325 14.6382 2.08325C19.2708 2.08325 23.0263 5.81421 23.0263 10.4166C23.0263 11.4562 22.8347 12.4514 22.4846 13.3692C22.4119 13.5598 22.3755 13.6551 22.359 13.7295C22.3426 13.8032 22.3363 13.8551 22.3346 13.9306C22.3328 14.0068 22.3431 14.0907 22.3638 14.2586L22.7831 17.665C22.8285 18.0338 22.8512 18.2182 22.7899 18.3522C22.7361 18.4697 22.6407 18.563 22.522 18.614C22.3866 18.6722 22.2028 18.6453 21.8352 18.5914L18.5172 18.105C18.3439 18.0796 18.2573 18.0669 18.1784 18.0674C18.1004 18.0678 18.0464 18.0736 17.97 18.0897C17.8928 18.1059 17.7942 18.1428 17.5969 18.2167C16.6768 18.5614 15.6796 18.7499 14.6382 18.7499C14.2025 18.7499 13.7747 18.7169 13.357 18.6533M7.9496 22.9166C11.038 22.9166 13.5417 20.3515 13.5417 17.1874C13.5417 14.0233 11.038 11.4583 7.9496 11.4583C4.86117 11.4583 2.3575 14.0233 2.3575 17.1874C2.3575 17.8235 2.45866 18.4353 2.6454 19.0069C2.72434 19.2486 2.76381 19.3694 2.77677 19.4519C2.79029 19.5381 2.79266 19.5865 2.78762 19.6736C2.7828 19.757 2.76193 19.8513 2.72019 20.0398L2.08337 22.9166L5.20296 22.4905C5.37323 22.4673 5.45837 22.4557 5.53272 22.4562C5.611 22.4567 5.65255 22.4609 5.72932 22.4762C5.80223 22.4908 5.91062 22.529 6.12741 22.6055C6.69857 22.8071 7.31161 22.9166 7.9496 22.9166Z" stroke="#7585CB" stroke-width="2" stroke-linecap="round" stroke-linejoin="round"/>
</g>
</svg>
