<svg width="25" height="25" viewBox="0 0 25 25" fill="none" xmlns="http://www.w3.org/2000/svg">
<path fill-rule="evenodd" clip-rule="evenodd" d="M21.1458 16.0417C21.25 15.8333 21.4583 15.625 21.875 15.625C23.6458 15.625 25 14.2708 25 12.5C25 10.7292 23.6458 9.375 21.875 9.375H21.6667C21.4583 9.375 21.25 9.27083 21.1458 9.0625C21.1458 8.95833 21.1458 8.95833 21.0417 8.85417C20.9375 8.64583 20.9375 8.33333 21.25 8.02083C22.5 6.77083 22.5 4.79167 21.25 3.64583C20.625 3.02083 19.8958 2.70833 19.0625 2.70833C18.2292 2.70833 17.3958 3.02083 16.7708 3.64583C16.5625 3.85417 16.25 3.85417 16.0417 3.75C15.8333 3.75 15.625 3.4375 15.625 3.125C15.625 1.35417 14.2708 0 12.5 0C10.7292 0 9.375 1.35417 9.375 3.125V3.33333C9.375 3.54167 9.27083 3.75 9.0625 3.85417C9.01823 3.85417 8.99278 3.85417 8.97015 3.86216C8.93952 3.87298 8.91407 3.89843 8.85417 3.95833C8.64583 4.0625 8.33333 3.95833 8.02083 3.75C6.77083 2.5 4.79167 2.5 3.64583 3.75C2.39583 5 2.39583 6.97917 3.75 8.22917C3.95833 8.4375 3.95833 8.75 3.85417 9.0625C3.75 9.27083 3.4375 9.47917 3.125 9.47917C1.35417 9.47917 0 10.8333 0 12.6042C0 14.375 1.35417 15.7292 3.125 15.7292H3.33333C3.64583 15.7292 3.85417 15.9375 3.95833 16.1458C4.0625 16.3542 4.0625 16.6667 3.75 16.9792C3.125 17.6042 2.8125 18.3333 2.8125 19.1667C2.8125 20 3.125 20.7292 3.75 21.3542C5 22.6042 6.97917 22.6042 8.22917 21.25C8.4375 21.0417 8.75 21.0417 9.0625 21.1458C9.375 21.25 9.47917 21.4583 9.47917 21.875C9.47917 23.6458 10.8333 25 12.6042 25C14.375 25 15.7292 23.6458 15.7292 21.875V21.6667C15.7292 21.3542 15.9375 21.1458 16.1458 21.0417C16.3542 20.9375 16.6667 20.9375 16.9792 21.25C18.2292 22.5 20.2083 22.5 21.3542 21.25C22.6042 20 22.6042 18.0208 21.25 16.7708C21.1458 16.5625 21.0417 16.25 21.1458 16.0417ZM8.33333 12.5C8.33333 10.2083 10.2083 8.33333 12.5 8.33333C14.7917 8.33333 16.6667 10.2083 16.6667 12.5C16.6667 14.7917 14.7917 16.6667 12.5 16.6667C10.2083 16.6667 8.33333 14.7917 8.33333 12.5ZM10.4167 12.5C10.4167 13.6458 11.3542 14.5833 12.5 14.5833C13.6458 14.5833 14.5833 13.6458 14.5833 12.5C14.5833 11.3542 13.6458 10.4167 12.5 10.4167C11.3542 10.4167 10.4167 11.3542 10.4167 12.5ZM19.8958 18.3333C19.0625 17.3958 18.8542 16.25 19.2708 15.2083C19.6875 14.1667 20.7292 13.5417 21.7708 13.5417C22.5 13.5417 22.9167 13.125 22.9167 12.5C22.9167 11.875 22.5 11.4583 21.875 11.4583H21.6667C20.625 11.4583 19.5833 10.8333 19.1667 9.79167C19.0625 9.6875 19.0625 9.58333 19.0625 9.47917C18.75 8.54167 18.9583 7.39583 19.6875 6.66667C20.2083 6.14583 20.2083 5.52083 19.7917 5.10417C19.5833 4.89583 19.375 4.79167 19.0625 4.79167C18.75 4.79167 18.5417 4.89583 18.3333 5.10417C17.3958 5.9375 16.25 6.14583 15.2083 5.72917C14.1667 5.3125 13.5417 4.375 13.5417 3.22917C13.5417 2.5 13.125 2.08333 12.5 2.08333C11.875 2.08333 11.4583 2.5 11.4583 3.125V3.33333C11.4583 4.375 10.8333 5.41667 9.79167 5.83333C9.6875 5.9375 9.58333 5.9375 9.47917 5.9375C8.54167 6.25 7.39583 6.04167 6.66667 5.3125C6.14583 4.79167 5.52083 4.79167 5.10417 5.20833C4.6875 5.625 4.6875 6.25 5.10417 6.66667C5.9375 7.60417 6.14583 8.75 5.72917 9.79167C5.3125 10.8333 4.375 11.5625 3.22917 11.5625H3.125C2.5 11.5625 2.08333 11.9792 2.08333 12.6042C2.08333 13.2292 2.5 13.6458 3.125 13.6458H3.33333C4.375 13.6458 5.41667 14.2708 5.83333 15.3125C6.35417 16.3542 6.14583 17.5 5.3125 18.3333C5 18.6458 4.89583 18.8542 4.89583 19.1667C4.89583 19.4792 5 19.6875 5.20833 19.8958C5.625 20.3125 6.25 20.3125 6.66667 19.8958C7.1875 19.375 7.91667 19.0625 8.64583 19.0625C9.0625 19.0625 9.47917 19.0625 9.79167 19.2708C10.8333 19.6875 11.5625 20.625 11.5625 21.7708V21.875C11.5625 22.5 11.9792 22.9167 12.6042 22.9167C13.2292 22.9167 13.6458 22.5 13.6458 21.875V21.6667C13.6458 20.625 14.2708 19.5833 15.3125 19.1667C16.3542 18.6458 17.5 18.8542 18.3333 19.6875C18.6458 20 18.8542 20.1042 19.1667 20.1042C19.4792 20.1042 19.6875 20 19.8958 19.7917C20.1042 19.5833 20.2083 19.375 20.2083 19.0625C20.2083 18.75 20.1042 18.5417 19.8958 18.3333Z" fill="black"/>
<mask id="mask0_0_597" style="mask-type:luminance" maskUnits="userSpaceOnUse" x="0" y="0" width="25" height="25">
<path fill-rule="evenodd" clip-rule="evenodd" d="M21.1458 16.0417C21.25 15.8333 21.4583 15.625 21.875 15.625C23.6458 15.625 25 14.2708 25 12.5C25 10.7292 23.6458 9.375 21.875 9.375H21.6667C21.4583 9.375 21.25 9.27083 21.1458 9.0625C21.1458 8.95833 21.1458 8.95833 21.0417 8.85417C20.9375 8.64583 20.9375 8.33333 21.25 8.02083C22.5 6.77083 22.5 4.79167 21.25 3.64583C20.625 3.02083 19.8958 2.70833 19.0625 2.70833C18.2292 2.70833 17.3958 3.02083 16.7708 3.64583C16.5625 3.85417 16.25 3.85417 16.0417 3.75C15.8333 3.75 15.625 3.4375 15.625 3.125C15.625 1.35417 14.2708 0 12.5 0C10.7292 0 9.375 1.35417 9.375 3.125V3.33333C9.375 3.54167 9.27083 3.75 9.0625 3.85417C9.01823 3.85417 8.99278 3.85417 8.97015 3.86216C8.93952 3.87298 8.91407 3.89843 8.85417 3.95833C8.64583 4.0625 8.33333 3.95833 8.02083 3.75C6.77083 2.5 4.79167 2.5 3.64583 3.75C2.39583 5 2.39583 6.97917 3.75 8.22917C3.95833 8.4375 3.95833 8.75 3.85417 9.0625C3.75 9.27083 3.4375 9.47917 3.125 9.47917C1.35417 9.47917 0 10.8333 0 12.6042C0 14.375 1.35417 15.7292 3.125 15.7292H3.33333C3.64583 15.7292 3.85417 15.9375 3.95833 16.1458C4.0625 16.3542 4.0625 16.6667 3.75 16.9792C3.125 17.6042 2.8125 18.3333 2.8125 19.1667C2.8125 20 3.125 20.7292 3.75 21.3542C5 22.6042 6.97917 22.6042 8.22917 21.25C8.4375 21.0417 8.75 21.0417 9.0625 21.1458C9.375 21.25 9.47917 21.4583 9.47917 21.875C9.47917 23.6458 10.8333 25 12.6042 25C14.375 25 15.7292 23.6458 15.7292 21.875V21.6667C15.7292 21.3542 15.9375 21.1458 16.1458 21.0417C16.3542 20.9375 16.6667 20.9375 16.9792 21.25C18.2292 22.5 20.2083 22.5 21.3542 21.25C22.6042 20 22.6042 18.0208 21.25 16.7708C21.1458 16.5625 21.0417 16.25 21.1458 16.0417ZM8.33333 12.5C8.33333 10.2083 10.2083 8.33333 12.5 8.33333C14.7917 8.33333 16.6667 10.2083 16.6667 12.5C16.6667 14.7917 14.7917 16.6667 12.5 16.6667C10.2083 16.6667 8.33333 14.7917 8.33333 12.5ZM10.4167 12.5C10.4167 13.6458 11.3542 14.5833 12.5 14.5833C13.6458 14.5833 14.5833 13.6458 14.5833 12.5C14.5833 11.3542 13.6458 10.4167 12.5 10.4167C11.3542 10.4167 10.4167 11.3542 10.4167 12.5ZM19.8958 18.3333C19.0625 17.3958 18.8542 16.25 19.2708 15.2083C19.6875 14.1667 20.7292 13.5417 21.7708 13.5417C22.5 13.5417 22.9167 13.125 22.9167 12.5C22.9167 11.875 22.5 11.4583 21.875 11.4583H21.6667C20.625 11.4583 19.5833 10.8333 19.1667 9.79167C19.0625 9.6875 19.0625 9.58333 19.0625 9.47917C18.75 8.54167 18.9583 7.39583 19.6875 6.66667C20.2083 6.14583 20.2083 5.52083 19.7917 5.10417C19.5833 4.89583 19.375 4.79167 19.0625 4.79167C18.75 4.79167 18.5417 4.89583 18.3333 5.10417C17.3958 5.9375 16.25 6.14583 15.2083 5.72917C14.1667 5.3125 13.5417 4.375 13.5417 3.22917C13.5417 2.5 13.125 2.08333 12.5 2.08333C11.875 2.08333 11.4583 2.5 11.4583 3.125V3.33333C11.4583 4.375 10.8333 5.41667 9.79167 5.83333C9.6875 5.9375 9.58333 5.9375 9.47917 5.9375C8.54167 6.25 7.39583 6.04167 6.66667 5.3125C6.14583 4.79167 5.52083 4.79167 5.10417 5.20833C4.6875 5.625 4.6875 6.25 5.10417 6.66667C5.9375 7.60417 6.14583 8.75 5.72917 9.79167C5.3125 10.8333 4.375 11.5625 3.22917 11.5625H3.125C2.5 11.5625 2.08333 11.9792 2.08333 12.6042C2.08333 13.2292 2.5 13.6458 3.125 13.6458H3.33333C4.375 13.6458 5.41667 14.2708 5.83333 15.3125C6.35417 16.3542 6.14583 17.5 5.3125 18.3333C5 18.6458 4.89583 18.8542 4.89583 19.1667C4.89583 19.4792 5 19.6875 5.20833 19.8958C5.625 20.3125 6.25 20.3125 6.66667 19.8958C7.1875 19.375 7.91667 19.0625 8.64583 19.0625C9.0625 19.0625 9.47917 19.0625 9.79167 19.2708C10.8333 19.6875 11.5625 20.625 11.5625 21.7708V21.875C11.5625 22.5 11.9792 22.9167 12.6042 22.9167C13.2292 22.9167 13.6458 22.5 13.6458 21.875V21.6667C13.6458 20.625 14.2708 19.5833 15.3125 19.1667C16.3542 18.6458 17.5 18.8542 18.3333 19.6875C18.6458 20 18.8542 20.1042 19.1667 20.1042C19.4792 20.1042 19.6875 20 19.8958 19.7917C20.1042 19.5833 20.2083 19.375 20.2083 19.0625C20.2083 18.75 20.1042 18.5417 19.8958 18.3333Z" fill="white"/>
</mask>
<g mask="url(#mask0_0_597)">
<rect width="25" height="25" fill="#2C375E"/>
</g>
</svg>
